<svg width="26" height="30" viewBox="0 0 26 30" fill="none" xmlns="http://www.w3.org/2000/svg">
<path d="M4.57098 8.10332C4.66276 7.58524 5.11306 7.2077 5.63921 7.2077H21.1094C21.6376 7.2077 22.0891 7.58819 22.1786 8.10881L25.7044 28.6236C25.7585 28.9388 25.6708 29.2619 25.4647 29.5065C25.2586 29.7511 24.955 29.8922 24.6352 29.8922H2.00492C1.68409 29.8922 1.37971 29.7502 1.17358 29.5043C0.967456 29.2585 0.88072 28.934 0.936686 28.6181L4.57098 8.10332ZM6.54878 9.37743L3.29886 27.7225H23.348L20.195 9.37743H6.54878Z" fill="#C6C6C6"/>
<path d="M4.57098 8.10332C4.66276 7.58524 5.11306 7.2077 5.63921 7.2077H21.1094C21.6376 7.2077 22.0891 7.58819 22.1786 8.10881L25.7044 28.6236C25.7585 28.9388 25.6708 29.2619 25.4647 29.5065C25.2586 29.7511 24.955 29.8922 24.6352 29.8922H2.00492C1.68409 29.8922 1.37971 29.7502 1.17358 29.5043C0.967456 29.2585 0.88072 28.934 0.936686 28.6181L4.57098 8.10332ZM6.54878 9.37743L3.29886 27.7225H23.348L20.195 9.37743H6.54878Z" stroke="white"/>
<path d="M9.74438 1.44748C10.7223 0.518178 12.0198 0 13.3689 0C14.7179 0 16.0154 0.518178 16.9934 1.44748C17.9713 2.37679 18.5549 3.64622 18.6236 4.99352C18.6246 5.01193 18.625 5.03036 18.625 5.04879V14.2376C18.625 14.8367 18.1393 15.3225 17.5402 15.3225C16.941 15.3225 16.4553 14.8367 16.4553 14.2376V5.07852C16.4089 4.29632 16.0672 3.56052 15.4987 3.02031C14.9241 2.47422 14.1616 2.16973 13.3689 2.16973C12.5761 2.16973 11.8137 2.47422 11.239 3.02031C10.6705 3.56052 10.3288 4.29632 10.2824 5.07852V14.2376C10.2824 14.8367 9.79672 15.3225 9.19757 15.3225C8.59841 15.3225 8.1127 14.8367 8.1127 14.2376V5.04879C8.1127 5.03036 8.11317 5.01193 8.11411 4.99352C8.18284 3.64622 8.76645 2.37679 9.74438 1.44748Z" fill="#C6C6C6"/>
<path d="M9.74438 1.44748C10.7223 0.518178 12.0198 0 13.3689 0C14.7179 0 16.0154 0.518178 16.9934 1.44748C17.9713 2.37679 18.5549 3.64622 18.6236 4.99352C18.6246 5.01193 18.625 5.03036 18.625 5.04879V14.2376C18.625 14.8367 18.1393 15.3225 17.5402 15.3225C16.941 15.3225 16.4553 14.8367 16.4553 14.2376V5.07852C16.4089 4.29632 16.0672 3.56052 15.4987 3.02031C14.9241 2.47422 14.1616 2.16973 13.3689 2.16973C12.5761 2.16973 11.8137 2.47422 11.239 3.02031C10.6705 3.56052 10.3288 4.29632 10.2824 5.07852V14.2376C10.2824 14.8367 9.79672 15.3225 9.19757 15.3225C8.59841 15.3225 8.1127 14.8367 8.1127 14.2376V5.04879C8.1127 5.03036 8.11317 5.01193 8.11411 4.99352C8.18284 3.64622 8.76645 2.37679 9.74438 1.44748Z" stroke="white"/>
</svg>
