<svg width="28" height="30" viewBox="0 0 28 30" fill="none" xmlns="http://www.w3.org/2000/svg">
<path fill-rule="evenodd" clip-rule="evenodd" d="M11.904 2.26519C6.44809 2.26519 2.0252 6.68808 2.0252 12.144C2.0252 17.5999 6.44809 22.0228 11.904 22.0228C17.3599 22.0228 21.7828 17.5999 21.7828 12.144C21.7828 6.68808 17.3599 2.26519 11.904 2.26519ZM0 12.144C0 5.56959 5.32961 0.23999 11.904 0.23999C18.4784 0.23999 23.808 5.56959 23.808 12.144C23.808 18.7184 18.4784 24.048 11.904 24.048C5.32961 24.048 0 18.7184 0 12.144Z" fill="#C6C6C6"/>
<path fill-rule="evenodd" clip-rule="evenodd" d="M18.151 19.7333C18.5443 19.3138 19.182 19.3138 19.5753 19.7333L27.481 28.1661C27.8743 28.5856 27.8743 29.2658 27.481 29.6854C27.0877 30.1049 26.45 30.1049 26.0567 29.6854L18.151 21.2526C17.7577 20.8331 17.7577 20.1529 18.151 19.7333Z" fill="#C6C6C6"/>
</svg>
